<svg width="100" height="100" viewBox="0 0 100 100" fill="none" xmlns="http://www.w3.org/2000/svg">
<path fill-rule="evenodd" clip-rule="evenodd" d="M100 50C100 77.6143 77.6143 100 50 100C22.3858 100 0 77.6143 0 50C0 22.3857 22.3858 0 50 0C77.6143 0 100 22.3857 100 50ZM69.388 79.1667H81.9444V53.3721C81.9444 42.4583 75.7577 37.1812 67.1162 37.1812C58.4708 37.1812 54.8324 43.9137 54.8324 43.9137V38.4259H42.7315V79.1667H54.8324V57.7803C54.8324 52.0499 57.4701 48.6399 62.519 48.6399C67.16 48.6399 69.388 51.9167 69.388 57.7803V79.1667ZM20.8333 25.5734C20.8333 29.725 24.1734 33.0913 28.2952 33.0913C32.417 33.0913 35.755 29.725 35.755 25.5734C35.755 21.4218 32.417 18.0556 28.2952 18.0556C24.1734 18.0556 20.8333 21.4218 20.8333 25.5734ZM34.6649 79.1667H22.0468V38.4259H34.6649V79.1667Z" fill="white"/>
</svg>
