<svg xmlns="http://www.w3.org/2000/svg" viewBox="0 0 588.3006 588.3006">
  <defs>
    <style>
      .a {
        fill: #111827;
      }

      .b {
        fill: #49e4e7;
      }

      .c {
        fill: #ff61d2;
      }

      .d {
        fill: #30ffb1;
      }
    </style>
  </defs>
  <g>
    <circle class="a" cx="294.1503" cy="294.1503" r="294.1503"/>
    <g>
      <path class="b" d="M201.64667,213.0628a24.073,24.073,0,0,0-7.09636-17.12653c-8.87671-8.82656-25.33874-8.85164-34.20291.02508L79.27845,277.04283a24.18472,24.18472,0,0,0,0,34.20292l81.094,81.10656a24.18514,24.18514,0,0,0,34.17785-34.228L130.58283,294.1568l63.98-63.96746A24.079,24.079,0,0,0,201.64667,213.0628Z"/>
      <path class="c" d="M516.03469,283.04288l-81.08148-81.08149c-8.83909-8.86417-25.30113-8.87671-34.21546,0a24.21511,24.21511,0,0,0,0,34.20292l63.98,63.98-63.98,63.96748a24.18957,24.18957,0,0,0,34.203,34.21546l81.0815-81.08148a24.19979,24.19979,0,0,0,.01248-34.20291Z"/>
      <path class="d" d="M340.81574,123.78617c-13.91689-3.77385-29.32575,5.39123-32.899,19.24542l-77.591,290.68468a26.88972,26.88972,0,1,0,52.05664,13.50313l77.591-290.68468a26.90831,26.90831,0,0,0-19.15765-32.74855Z"/>
    </g>
  </g>
</svg>
