  <svg 
    width="100" height="100" viewBox="0 0 100 100" xmlns="http://www.w3.org/2000/svg">
    <path class="text-[#EF9645]" d="M13.5186 25.3212C16.1327 23.4941 20.0734 23.8445 22.4206 25.7828L19.7286 21.87C17.5622 18.7802 18.3381 15.4374 21.4306 13.2683C24.5231 11.1074 33.2861 16.917 33.2861 16.917C31.1002 13.7966 31.509 9.84203 34.6293 7.65337C37.7496 5.47305 42.0546 6.2267 44.2405 9.35257L73.2188 50.2892L69.5256 86.0949L38.7035 74.854L11.8194 34.9936C9.61401 31.8538 10.376 27.5238 13.5186 25.3212Z" />
    <path class="text-[#FFDC5D]" d="M7.49485 48.095C7.49485 48.095 4.34673 43.5063 8.9382 40.361C13.5241 37.2156 16.6694 41.8015 16.6694 41.8015L31.2726 63.0986C31.776 62.2588 32.3266 61.43 32.9412 60.6124L12.6731 31.0585C12.6731 31.0585 9.52778 26.4726 14.1165 23.3272C18.7024 20.1819 21.8477 24.7678 21.8477 24.7678L40.9116 52.5697C41.6208 51.9912 42.3466 51.41 43.0947 50.8399L20.9939 18.605C20.9939 18.605 17.8486 14.0191 22.4373 10.8738C27.0232 7.72846 30.1685 12.3144 30.1685 12.3144L52.2693 44.5436C53.0814 44.0458 53.8851 43.6148 54.6916 43.1587L34.0341 13.0347C34.0341 13.0347 30.8888 8.44875 35.4747 5.30341C40.0606 2.15808 43.206 6.74398 43.206 6.74398L65.0481 38.5978L68.3686 43.4424C54.6081 52.8811 53.2983 70.638 61.1602 82.1041C62.7315 84.3985 65.0259 82.8272 65.0259 82.8272C55.5898 69.0639 58.471 53.5986 72.2343 44.1626L68.1768 23.8556C68.1768 23.8556 66.6611 18.5049 72.009 16.9865C77.3597 15.4708 78.8781 20.8215 78.8781 20.8215L83.5642 34.7378C85.4219 40.2553 87.3992 45.7534 90.0161 50.9539C97.4053 65.6377 92.9918 83.8868 79.0589 93.4451C63.8606 103.866 43.0836 99.9917 32.6603 84.7962L7.49485 48.095Z"/>
    <path class="text-[#4E565B]" d="M33.3722 88.9927C22.2482 88.9927 11.0073 77.7518 11.0073 66.6277C11.0073 65.0898 9.88095 63.8467 8.34305 63.8467C6.80514 63.8467 5.44522 65.0898 5.44522 66.6277C5.44522 83.3139 16.6861 94.5548 33.3722 94.5548C34.9102 94.5548 36.1533 93.1948 36.1533 91.6569C36.1533 90.119 34.9102 88.9927 33.3722 88.9927Z"/>
    <path class="text-[#4E565B]" d="M19.4672 94.438C11.1241 94.438 5.56204 88.8759 5.56204 80.5328C5.56204 78.9949 4.31893 77.7518 2.78102 77.7518C1.24312 77.7518 0 78.9949 0 80.5328C0 91.6569 8.34307 100 19.4672 100C21.0051 100 22.2482 98.7569 22.2482 97.219C22.2482 95.6811 21.0051 94.438 19.4672 94.438ZM66.7445 5.44524C65.2094 5.44524 63.9635 6.69114 63.9635 8.22627C63.9635 9.76139 65.2094 11.0073 66.7445 11.0073C77.8686 11.0073 88.9927 20.9884 88.9927 33.2555C88.9927 34.7906 90.2386 36.0365 91.7737 36.0365C93.3089 36.0365 94.5548 34.7906 94.5548 33.2555C94.5548 17.9209 83.4307 5.44524 66.7445 5.44524Z"/>
    <path class="text-[#4E565B]" d="M80.6496 0C79.1145 0 77.8686 1.1291 77.8686 2.66422C77.8686 4.19934 79.1145 5.56204 80.6496 5.56204C88.9927 5.56204 94.438 11.7498 94.438 19.3504C94.438 20.8855 95.7979 22.1314 97.3358 22.1314C98.8737 22.1314 100 20.8855 100 19.3504C100 8.67957 91.7737 0 80.6496 0Z"/>
  </svg>